<?xml version="1.0" encoding="UTF-8" standalone="no"?>
<!DOCTYPE svg PUBLIC "-//W3C//DTD SVG 1.1//EN" "http://www.w3.org/Graphics/SVG/1.1/DTD/svg11.dtd">
<svg width="100%" height="100%" viewBox="0 0 512 512" version="1.1" xmlns="http://www.w3.org/2000/svg" xmlns:xlink="http://www.w3.org/1999/xlink" xml:space="preserve" xmlns:serif="http://www.serif.com/" style="fill-rule:evenodd;clip-rule:evenodd;stroke-linejoin:round;stroke-miterlimit:2;">
    <path d="M256,0C396.437,-0 512,115.563 512,256C512,396.437 396.437,512 256,512C115.563,512 0,396.437 0,256C0,115.563 115.563,0 256,0Z" style="fill-rule:nonzero;"/>
    <path d="M246,144.9C171.6,144.9 113.6,191.8 113.6,250.1C113.6,305.1 166.9,340.2 249.5,338.5L252,338.4L261.1,338.1L258.8,344.1L259.1,344.7C259.759,346.243 260.359,347.811 260.9,349.4L261.1,350L261.4,351L261.8,352.4L262.1,353.3L262.5,354.3L262.8,355.4L263.2,357L263.7,358.7L264,359.8L264.5,361.6L265,363.5L265.4,365.4L265.9,367.4L266.3,368.8L267.3,373.2L268,376.2L268.3,377.8L268.8,380.2L269.3,382.7L269.9,385.3L270.6,389L271.2,392L272.4,398.3L273.1,401.6L273.7,405L274.5,409.6L275.4,414.4L276.2,419.4L277.1,424.5L278,429.7L278.9,435.1L279.8,440.7L280.5,445L281.6,452.3L282.1,455.3L283.3,463L284.2,469.3L285,474.1L285.9,480.7L286.4,484C341.3,476.7 390.1,450.1 425.7,411.2L426.8,410L421.7,391L408.2,340.5L399.8,309.1L392.4,281.5L387.8,264.7L384.9,254.1L383.2,247.7L381.6,242.1L381,239.7L380.6,238.4L380.4,237.7L380.2,237.1C372.4,212 357.3,189.8 336.7,173.7C312.5,154.8 281.8,144.9 246,144.9ZM180.6,411.8C174.1,410 167.3,413.8 165.4,420.3L165.3,420.6L154.1,462.2C161.103,465.665 168.279,468.769 175.6,471.5L177.3,472.2L189.4,427.1L189.5,426.8C191.1,420.2 187.2,413.5 180.6,411.8ZM250.3,381.3C243.7,379.5 236.9,383.3 235,389.8L234.9,390.1L217.9,453.1L217.9,453.4C217.721,454.248 217.631,455.111 217.631,455.978C217.631,462.835 223.274,468.478 230.131,468.478C235.51,468.478 240.312,465.007 242,459.9L242.1,459.6L259.1,396.6L259.1,396.3L259.4,394.9L259.5,394.4L259.1,392.3L258.5,389.4L258.1,387.6C256.494,384.505 253.664,382.219 250.3,381.3ZM131.8,316.4L131,318.3L130.9,318.7L113.9,381.7L113.8,382C113.571,382.955 113.455,383.935 113.455,384.917C113.455,391.775 119.098,397.417 125.955,397.417C131.425,397.417 136.288,393.827 137.9,388.6L138,388.3L153.4,331.1C145.4,326.9 138.1,321.9 131.8,316.4ZM91.3,243.9C84.7,242.2 77.9,246 76,252.4L75.9,252.7L58.9,315.7L58.9,316C58.671,316.955 58.555,317.935 58.555,318.917C58.555,325.775 64.198,331.417 71.055,331.417C76.525,331.417 81.388,327.827 83,322.6L83.1,322.3L100.1,259.3L100.1,259C101.7,252.4 97.8,245.7 91.3,243.9ZM472.4,229.6C465.9,227.9 459.1,231.7 457.2,238.1L457.1,238.4L440.1,301.4L440,301.7C439.707,302.775 439.558,303.885 439.558,305C439.558,311.88 445.22,317.542 452.1,317.542C457.738,317.542 462.716,313.74 464.2,308.3L464.2,308L481.3,245L481.3,244.6C482.9,238.1 479,231.4 472.4,229.6ZM54.2,145.5C39.955,171.439 30.887,199.901 27.5,229.3C29.14,231.158 31.3,232.481 33.7,233.1C40.2,234.8 47,231 48.9,224.6L49,224.3L66,161.3L66.1,161C67.7,154.4 63.8,147.7 57.2,145.9C56.22,145.648 55.212,145.513 54.2,145.5ZM429.4,145.9C422.8,144.2 416.1,148 414.1,154.4L414.1,154.7L397.1,217.7L397,218C396.771,218.955 396.655,219.935 396.655,220.917C396.655,227.775 402.298,233.417 409.155,233.417C414.625,233.417 419.488,229.827 421.1,224.6L421.2,224.3L438.2,161.3L438.3,161C439.9,154.4 435.9,147.7 429.4,145.9Z" style="fill:white;fill-rule:nonzero;"/>
    <path d="M180.6,411.8C174.1,410 167.3,413.8 165.4,420.3L165.3,420.6L154.1,462.2C161.103,465.665 168.279,468.769 175.6,471.5L177.3,472.2L189.4,427.1L189.5,426.8C191.1,420.2 187.2,413.5 180.6,411.8ZM250.3,381.3C243.7,379.5 236.9,383.3 235,389.8L234.9,390.1L217.9,453.1L217.9,453.4C217.721,454.248 217.631,455.111 217.631,455.978C217.631,462.835 223.274,468.478 230.131,468.478C235.51,468.478 240.312,465.007 242,459.9L242.1,459.6L259.1,396.6L259.1,396.3L259.4,394.9L259.5,394.4L259.1,392.3L258.5,389.4L258.1,387.6C256.494,384.505 253.664,382.219 250.3,381.3ZM131.8,316.4L131,318.3L130.9,318.7L113.9,381.7L113.8,382C113.571,382.955 113.455,383.935 113.455,384.917C113.455,391.775 119.098,397.417 125.955,397.417C131.425,397.417 136.288,393.827 137.9,388.6L138,388.3L153.4,331.1C145.4,326.9 138.1,321.9 131.8,316.4ZM91.3,243.9C84.7,242.2 77.9,246 76,252.4L75.9,252.7L58.9,315.7L58.9,316C58.671,316.955 58.555,317.935 58.555,318.917C58.555,325.775 64.198,331.417 71.055,331.417C76.525,331.417 81.388,327.827 83,322.6L83.1,322.3L100.1,259.3L100.1,259C101.7,252.4 97.8,245.7 91.3,243.9ZM54.2,145.5C39.955,171.439 30.887,199.901 27.5,229.3C29.14,231.158 31.3,232.481 33.7,233.1C40.2,234.8 47,231 48.9,224.6L49,224.3L66,161.3L66.1,161C67.7,154.4 63.8,147.7 57.2,145.9C56.22,145.648 55.212,145.513 54.2,145.5Z" style="fill:rgb(255,0,89);fill-rule:nonzero;"/>
    <path d="M262,187C270.777,187 278,194.223 278,203C278,211.777 270.777,219 262,219C253.223,219 246,211.777 246,203C246,194.223 253.223,187 262,187Z" style="fill-rule:nonzero;"/>
    <path d="M128.2,86C121.7,84.3 114.9,88.1 113,94.5L112.9,94.8L95.9,157.8L95.8,158.1C95.571,159.055 95.455,160.035 95.455,161.017C95.455,167.875 101.098,173.517 107.955,173.517C113.425,173.517 118.288,169.927 119.9,164.7L120,164.4L137,101.4L137.1,101C138.7,94.5 134.8,87.8 128.2,86ZM346.7,97.9C340.1,96.2 333.3,100 331.4,106.4L331.3,106.7L319.9,149.1C327.297,152.737 334.357,157.02 341,161.9L342.1,162.8L355.5,113.3L355.5,113C357.1,106.4 353.2,99.7 346.7,97.9ZM235.5,26.9C227.513,27.617 219.569,28.752 211.7,30.3L210,30.6L194.2,89.3L194.1,89.6C193.921,90.448 193.831,91.311 193.831,92.178C193.831,99.035 199.474,104.678 206.331,104.678C211.71,104.678 216.512,101.207 218.2,96.1L218.3,95.8L235.3,32.8L235.4,32.5C235.86,30.665 235.894,28.75 235.5,26.9ZM391.9,70.4L388.6,82.8L388.5,83.1C388.321,83.948 388.231,84.811 388.231,85.678C388.231,92.535 393.874,98.178 400.731,98.178C406.11,98.178 410.912,94.707 412.6,89.6L412.7,89.3L413.1,88C406.844,82.139 400.267,76.631 393.4,71.5L391.9,70.4ZM293,29L287,51.3L286.9,51.6C286.721,52.448 286.631,53.311 286.631,54.178C286.631,61.035 292.274,66.678 299.131,66.678C304.51,66.678 309.312,63.207 311,58.1L311.1,57.8L317.4,34.3C309.956,32.253 302.413,30.584 294.8,29.3L293,29Z" style="fill:rgb(41,171,214);fill-rule:nonzero;"/>
</svg>
